<svg xmlns="http://www.w3.org/2000/svg" viewBox="0 0 1365.18 876.11"><defs><style>.cls-1{fill:#33b484;}</style></defs><g id="Layer_2" data-name="Layer 2"><g id="Layer_1-2" data-name="Layer 1"><path id="Path_11" data-name="Path 11" class="cls-1" d="M1328.13,80.66c-30.51,14.44-62.83,16.84-79.61,54.2-15,33.53-7.35,53.64,10,79.24,22.79,33.59,45,66.55,52.3,108.51,11.32,64.73-1.18,130-45.5,177-46.55,49.32-111.55,71.66-175.17,85.82-260.7,58-534.74,4.89-794.45,68.12-82.27,20-164.9,53.44-224.7,118.13-28.3,30.62-50.47,67.13-71,104.48v-431c54.82-26.08,127.07-51.08,183-65.69,40.6-6.57,99.87-22.39,136.7-28.5,69.88-11.6,113.72-11.91,180.56-13.82,138-4,242.94,25.09,380.83,30.84,52.8,2.2,263.33,5.5,215-123.95-18.65-49.8-27.18-99,10.51-149.26,23.44-28.49,23.1-26.53,49.74-49.46.76-.59,24.74-18.9,44.48-27,20.88-8.58,28.57-8.88,36.3-10.44,10.46-.77,22.23-7.83,22.23-7.83s105.45,3.14,105.79,11.61C1366.18,39.9,1352,69.37,1328.13,80.66Z"/></g></g></svg>